<?xml version="1.0" encoding="utf-8"?>
<!-- Generator: Adobe Illustrator 24.0.0, SVG Export Plug-In . SVG Version: 6.00 Build 0)  -->
<svg version="1.1" id="Layer_1" xmlns="http://www.w3.org/2000/svg" xmlns:xlink="http://www.w3.org/1999/xlink" x="0px" y="0px"
	 viewBox="0 0 24 24" style="enable-background:new 0 0 24 24;" xml:space="preserve">
<style type="text/css">
	.st0{fill:none;}
	.st1{fill:#00FFD4;}
</style>
<path class="st0" d="M0,0h24v24H0V0z"/>
<path class="st1" d="M17.8,2.7H6.2C5.5,2.7,5,3.2,5,3.9v16.2c0,0.7,0.5,1.2,1.2,1.2h11.6c0.7,0,1.2-0.5,1.2-1.2V3.9
	C19,3.2,18.5,2.7,17.8,2.7z M8.2,19.6H6.6v-1.7h1.7v1.7H8.2z M8.2,17.1H6.6v-1.7h1.7v1.7H8.2z M8.2,14.6H6.6V13h1.7v1.6H8.2z
		 M8.2,12.2H6.6v-1.7h1.7v1.7H8.2z M10.8,19.6H9.1v-1.7h1.7V19.6z M10.8,17.1H9.1v-1.7h1.7V17.1z M10.8,14.6H9.1V13h1.7V14.6z
	 M10.8,12.2H9.1v-1.7h1.7V12.2z M13.5,19.6h-1.7v-1.7h1.7V19.6z M13.5,17.1h-1.7v-1.7h1.7V17.1z M13.5,14.6h-1.7V13h1.7V14.6z
	 M13.5,12.2h-1.7v-1.7h1.7V12.2z M13.5,9.7H6.6V7.9h6.9V9.7z M17.3,19.6h-2.7v-6.2h2.7V19.6z M17.4,12.2h-2.8v-1.8h2.8V12.2z
	 	 M17.4,9.7h-2.8V7.9h2.8V9.7z M17.6,6.1c0,0.2-0.2,0.4-0.4,0.4H6.8c-0.2,0-0.4-0.2-0.4-0.4V4.9c0-0.2,0.2-0.4,0.4-0.4h10.4
	c0.2,0,0.4,0.2,0.4,0.4V6.1z"/>
</svg>
