<?xml version="1.0" encoding="utf-8"?>
<!-- Generator: Adobe Illustrator 24.0.0, SVG Export Plug-In . SVG Version: 6.00 Build 0)  -->
<svg version="1.1" id="Layer_1" xmlns="http://www.w3.org/2000/svg" xmlns:xlink="http://www.w3.org/1999/xlink" x="0px" y="0px"
	 viewBox="0 0 24 24" style="enable-background:new 0 0 24 24;" xml:space="preserve">
<style type="text/css">
	.st0{fill:#FC3D3D;}
	.st1{fill:none;}
</style>
<path class="st0" d="M4,8h4V4H4.8C4.3,4,4,4.3,4,4.8V8z M10,20h4v-4h-4V20z M4.8,20H8v-4H4v3.2C4,19.7,4.3,20,4.8,20z M4,14h4v-4H4
	V14z M10,14h4v-4h-4V14z M16,4v4h4V4.8C20,4.3,19.7,4,19.2,4H16z M10,8h4V4h-4V8z M16,14h4v-4h-4V14z M16,20h3.2
	c0.4,0,0.8-0.3,0.8-0.8V16h-4V20z"/>
<path class="st1" d="M0,0h24v24H0V0z"/>
</svg>
