<svg xmlns="http://www.w3.org/2000/svg" viewBox="0 0 24 24"><defs><style>.cls-1{fill:#2bed62;}.cls-2{fill:none;}</style></defs><title>phinixsAsset 1favicon</title><g id="Layer_2" data-name="Layer 2"><g id="Layer_1-2" data-name="Layer 1"><path class="cls-1" d="M18,8H17V6A5,5,0,0,0,7,6V8H6a2,2,0,0,0-2,2V20a2,2,0,0,0,2,2H18a2,2,0,0,0,2-2V10A2,2,0,0,0,18,8ZM8.9,15.17l-1.06-.12h0l.67.84-.44.26-.42-1h0l-.46,1-.4-.25.67-.85v0l-1,.13V14.7l1,.13h0L6.78,14l.43-.24.43,1h0l.43-1,.42.24-.67.87v0L8.9,14.7ZM8.9,6a3.1,3.1,0,0,1,6.2,0V8H8.9Zm5.23,9.34-1.81-.21v0l1.15,1.44-.76.43L12,15.34h0L11.19,17l-.68-.44,1.13-1.46v0l-1.77.22v-.81l1.76.23v0l-1.12-1.46.73-.42L12,14.52h0l.74-1.68.72.41-1.14,1.49v0l1.81-.24Zm3.45-.17-1-.12h0l.67.84-.44.26-.42-1h0l-.45,1-.4-.25.67-.85v0l-1,.13V14.7l1,.13h0L15.47,14l.43-.24.43,1h0l.42-1,.42.24-.66.87v0l1-.14Z"/><path class="cls-2" d="M0,0V24H24V0ZM6.41,14.7l1,.13h0L6.78,14l.43-.24.43,1h0l.43-1,.42.24-.67.87v0L8.9,14.7v.47l-1.06-.12h0l.67.84-.44.26-.42-1h0l-.46,1-.4-.25.67-.85v0l-1,.13Zm7.06,1.89-.76.43L12,15.34h0L11.19,17l-.68-.44,1.13-1.46v0l-1.77.22v-.81l1.76.23v0l-1.12-1.46.73-.42L12,14.52h0l.74-1.68.72.41-1.14,1.49v0l1.81-.24v.81l-1.81-.21v0Zm4.11-1.42-1-.12h0l.67.84-.44.26-.42-1h0l-.45,1-.4-.25.67-.85v0l-1,.13V14.7l1,.13h0L15.47,14l.43-.24.43,1h0l.42-1,.42.24-.66.87v0l1-.14Z"/></g></g></svg>
